<?xml version="1.0" encoding="utf-8"?>
<!-- Generator: Adobe Illustrator 25.2.1, SVG Export Plug-In . SVG Version: 6.00 Build 0)  -->
<svg version="1.1" id="Слой_1" xmlns="http://www.w3.org/2000/svg" xmlns:xlink="http://www.w3.org/1999/xlink" x="0px" y="0px"
	 viewBox="0 0 136 46" style="enable-background:new 0 0 136 46;" xml:space="preserve">
<style type="text/css">
	.st0{display:none;fill:#FFFFFF;}
	.st1{fill:#00ACB1;}
	.st2{fill:#FFFFFF;}
	.st3{fill:none;}
	.st4{font-family:'Montserrat-Black';}
	.st5{font-size:26px;}
</style>
<path class="st0" d="M50.9,33V14.7h7c2.1,0,3.9,0.4,5.4,1.1c1.5,0.7,2.6,1.8,3.3,3.1c0.8,1.4,1.1,3,1.1,4.9s-0.4,3.5-1.1,4.9
	s-1.9,2.4-3.3,3.2C61.8,32.6,60,33,57.9,33H50.9z M54.9,29.7h2.7c2,0,3.6-0.5,4.5-1.4c1-1,1.5-2.4,1.5-4.4s-0.5-3.5-1.5-4.4
	c-1-1-2.5-1.4-4.5-1.4h-2.7V29.7z M76.4,33.3c-1.4,0-2.6-0.3-3.7-0.8c-1-0.6-1.8-1.4-2.4-2.4s-0.8-2.2-0.8-3.7
	c0-1.4,0.3-2.6,0.8-3.6c0.6-1,1.4-1.8,2.4-2.4s2.3-0.8,3.7-0.8s2.6,0.3,3.7,0.8c1,0.6,1.8,1.3,2.4,2.4c0.6,1,0.9,2.2,0.9,3.6
	s-0.3,2.6-0.9,3.7c-0.6,1-1.4,1.8-2.4,2.4C79,33,77.8,33.3,76.4,33.3z M76.4,30.3c0.9,0,1.6-0.3,2.1-1c0.5-0.6,0.8-1.6,0.8-3
	S79,24,78.5,23.4s-1.2-0.9-2.1-0.9s-1.6,0.3-2.2,0.9c-0.5,0.6-0.8,1.6-0.8,2.9s0.3,2.3,0.8,3C74.8,30,75.5,30.3,76.4,30.3z
	 M91.7,33.3c-1.4,0-2.6-0.3-3.7-0.8c-1.1-0.6-1.9-1.4-2.4-2.4c-0.6-1-0.9-2.3-0.9-3.7c0-1.4,0.3-2.7,0.9-3.7s1.4-1.8,2.4-2.3
	c1.1-0.5,2.3-0.8,3.7-0.8c0.9,0,1.7,0.1,2.6,0.4c0.8,0.3,1.5,0.6,2.1,1.1l-1.1,2.7c-0.4-0.4-0.9-0.7-1.5-0.9
	c-0.6-0.2-1.1-0.3-1.6-0.3c-1.1,0-1.9,0.3-2.5,1s-0.9,1.6-0.9,2.9s0.3,2.2,0.9,2.9c0.6,0.7,1.4,1,2.5,1c0.5,0,1-0.1,1.6-0.3
	c0.6-0.2,1.1-0.5,1.5-0.9l1.1,2.7c-0.6,0.5-1.3,0.8-2.1,1.1C93.4,33.2,92.5,33.3,91.7,33.3z M98,33V13.9h3.9V33H98z M109.8,33.3
	c-1.1,0-2.1-0.3-3-0.8c-0.9-0.6-1.5-1.3-2-2.4c-0.5-1-0.7-2.3-0.7-3.7c0-1.4,0.2-2.6,0.7-3.7c0.5-1,1.2-1.8,2-2.3
	c0.9-0.6,1.9-0.8,3-0.8s2,0.3,2.8,0.8s1.4,1.2,1.7,2.1H114l0.3-2.6h3.8c-0.1,0.6-0.1,1.2-0.2,1.7c0,0.6-0.1,1.1-0.1,1.7V33H114v-2.5
	h0.3c-0.3,0.8-0.8,1.5-1.7,2C111.7,33,110.8,33.3,109.8,33.3z M111,30.3c0.9,0,1.6-0.3,2.2-1c0.6-0.6,0.8-1.6,0.8-3
	s-0.3-2.3-0.8-2.9c-0.6-0.6-1.3-0.9-2.2-0.9c-0.9,0-1.6,0.3-2.2,0.9S108,25,108,26.3s0.3,2.3,0.8,3S110,30.3,111,30.3z M128.6,33.3
	c-1.1,0-2-0.3-2.8-0.8s-1.4-1.2-1.6-2.1h0.3V33h-3.9V13.9h3.9v8.4h-0.3c0.3-0.8,0.8-1.5,1.7-2c0.8-0.5,1.8-0.8,2.8-0.8
	c1.2,0,2.2,0.3,3,0.8c0.9,0.6,1.5,1.3,2,2.4c0.5,1,0.8,2.3,0.8,3.7c0,1.4-0.3,2.6-0.8,3.7c-0.5,1-1.2,1.8-2.1,2.4
	C130.8,33,129.8,33.3,128.6,33.3z M127.4,30.3c0.9,0,1.6-0.3,2.2-0.9s0.9-1.6,0.9-2.9s-0.3-2.3-0.9-3s-1.3-1-2.2-1
	c-0.9,0-1.6,0.3-2.2,0.9s-0.8,1.6-0.8,2.9s0.3,2.3,0.8,3C125.8,30,126.5,30.3,127.4,30.3z"/>
<path class="st1" d="M16,2h13c1.1,0,2,0.9,2,2v38c0,1.1-0.9,2-2,2H16c-1.1,0-2-0.9-2-2V4C14,2.9,14.9,2,16,2z"/>
<path class="st1" d="M2,15h12c1.1,0,2,0.9,2,2v13c0,1.1-0.9,2-2,2H2c-1.1,0-2-0.9-2-2V17C0,15.9,0.9,15,2,15z"/>
<path class="st2" d="M36.4,12.8c-0.4-0.7-1.3-0.6-1.6,0.2c-1.3,3.3-4.1,5.6-7.6,6.2l-4.4,0.7c-5.9,0.9-9.9,6.4-9.1,12.4
	c0.1,0.4,0.2,0.8,0.3,1.1c3.2-3.1,8-6,15.2-7.1c0.5-0.1,0.9,0.3,1,0.8s-0.3,1-0.8,1c-14,2.1-18.6,11.6-19.4,15.1
	c-0.2,1,0.4,2,1.3,2.2c1,0.2,1.9-0.3,2.2-1.3c0.1-0.2,0.8-2.9,3.2-5.7c2.2,2.2,5.9,4.1,10.4,2.9c8.6-1.9,13.6-10.8,12.1-20.5
	C38.8,17.9,37.8,15,36.4,12.8L36.4,12.8z"/>
<rect x="43.1" y="14" class="st3" width="142.7" height="24"/>
<text transform="matrix(1 0 0 1 53.9854 31.3114)" class="st2 st4 st5">ШИФО</text>
</svg>
